{
    "asset" : {
        "generator" : "Khronos glTF Blender I/O v3.3.32",
        "version" : "2.0"
    },
    "scene" : 0,
    "scenes" : [
        {
            "name" : "Scene",
            "nodes" : [
                5
            ]
        }
    ],
    "nodes" : [
        {
            "name" : "Circle.012",
            "rotation" : [
                -0.5660259127616882,
                0.42380979657173157,
                0.4238097667694092,
                0.5660259127616882
            ],
            "scale" : [
                3.97145938873291,
                3.9714596271514893,
                7.207752704620361
            ]
        },
        {
            "mesh" : 0,
            "name" : "Circle.015_Grass_0"
        },
        {
            "children" : [
                1
            ],
            "name" : "Circle.015",
            "rotation" : [
                -0.6476264595985413,
                0.2838659882545471,
                0.28386592864990234,
                0.6476265788078308
            ],
            "scale" : [
                3.15248703956604,
                3.15248703956604,
                5.721409320831299
            ]
        },
        {
            "children" : [
                0,
                2
            ],
            "name" : "RootNode"
        },
        {
            "children" : [
                3
            ],
            "name" : "Low poly Grass pack.fbx",
            "rotation" : [
                0.7071068286895752,
                0,
                0,
                0.7071067094802856
            ]
        },
        {
            "children" : [
                4
            ],
            "name" : "Sketchfab_model",
            "rotation" : [
                -0.7071068286895752,
                0,
                0,
                0.7071067094802856
            ]
        }
    ],
    "materials" : [
        {
            "doubleSided" : true,
            "name" : "Grass",
            "pbrMetallicRoughness" : {
                "baseColorFactor" : [
                    0.025709200650453568,
                    0.3995470106601715,
                    0.135453000664711,
                    1
                ],
                "metallicFactor" : 0,
                "roughnessFactor" : 0.823941707611084
            }
        }
    ],
    "meshes" : [
        {
            "name" : "Circle.015_Grass_0",
            "primitives" : [
                {
                    "attributes" : {
                        "POSITION" : 0,
                        "NORMAL" : 1
                    },
                    "indices" : 2,
                    "material" : 0
                }
            ]
        }
    ],
    "accessors" : [
        {
            "bufferView" : 0,
            "componentType" : 5126,
            "count" : 78,
            "max" : [
                2.747981548309326,
                5.457822799682617,
                6.987285614013672
            ],
            "min" : [
                -6.415389060974121,
                -1.5865474939346313,
                0
            ],
            "type" : "VEC3"
        },
        {
            "bufferView" : 1,
            "componentType" : 5126,
            "count" : 78,
            "type" : "VEC3"
        },
        {
            "bufferView" : 2,
            "componentType" : 5123,
            "count" : 90,
            "type" : "SCALAR"
        }
    ],
    "bufferViews" : [
        {
            "buffer" : 0,
            "byteLength" : 936,
            "byteOffset" : 0,
            "target" : 34962
        },
        {
            "buffer" : 0,
            "byteLength" : 936,
            "byteOffset" : 936,
            "target" : 34962
        },
        {
            "buffer" : 0,
            "byteLength" : 180,
            "byteOffset" : 1872,
            "target" : 34963
        }
    ],
    "buffers" : [
        {
            "byteLength" : 2052,
            "uri" : "data:application/octet-stream;base64,"
        }
    ]
}
