{
    "asset" : {
        "generator" : "Khronos glTF Blender I/O v3.3.32",
        "version" : "2.0"
    },
    "scene" : 0,
    "scenes" : [
        {
            "name" : "Scene",
            "nodes" : [
                1
            ]
        }
    ],
    "nodes" : [
        {
            "mesh" : 0,
            "name" : "Object_1127"
        },
        {
            "children" : [
                0
            ],
            "name" : "Rock 1_542",
            "scale" : [
                0.17135773599147797,
                0.17135773599147797,
                0.17135773599147797
            ],
            "translation" : [
                0,
                0.6300836801528931,
                0
            ]
        }
    ],
    "materials" : [
        {
            "doubleSided" : true,
            "name" : "gray",
            "pbrMetallicRoughness" : {
                "baseColorFactor" : [
                    0.056128498166799545,
                    0.09530749917030334,
                    0.13286800682544708,
                    1
                ],
                "metallicFactor" : 0,
                "roughnessFactor" : 0.5
            }
        }
    ],
    "meshes" : [
        {
            "name" : "Object_585",
            "primitives" : [
                {
                    "attributes" : {
                        "POSITION" : 0,
                        "NORMAL" : 1,
                        "TEXCOORD_0" : 2
                    },
                    "indices" : 3,
                    "material" : 0
                }
            ]
        }
    ],
    "accessors" : [
        {
            "bufferView" : 0,
            "componentType" : 5126,
            "count" : 102,
            "max" : [
                3.9703140258789062,
                4.548609256744385,
                3.8345184326171875
            ],
            "min" : [
                -5.569053649902344,
                -3.639127492904663,
                -3.6186065673828125
            ],
            "type" : "VEC3"
        },
        {
            "bufferView" : 1,
            "componentType" : 5126,
            "count" : 102,
            "type" : "VEC3"
        },
        {
            "bufferView" : 2,
            "componentType" : 5126,
            "count" : 102,
            "type" : "VEC2"
        },
        {
            "bufferView" : 3,
            "componentType" : 5123,
            "count" : 102,
            "type" : "SCALAR"
        }
    ],
    "bufferViews" : [
        {
            "buffer" : 0,
            "byteLength" : 1224,
            "byteOffset" : 0,
            "target" : 34962
        },
        {
            "buffer" : 0,
            "byteLength" : 1224,
            "byteOffset" : 1224,
            "target" : 34962
        },
        {
            "buffer" : 0,
            "byteLength" : 816,
            "byteOffset" : 2448,
            "target" : 34962
        },
        {
            "buffer" : 0,
            "byteLength" : 204,
            "byteOffset" : 3264,
            "target" : 34963
        }
    ],
    "buffers" : [
        {
            "byteLength" : 3468,
            "uri" : "data:application/octet-stream;base64,"
        }
    ]
}
