{
    "asset" : {
        "generator" : "Khronos glTF Blender I/O v3.3.32",
        "version" : "2.0"
    },
    "scene" : 0,
    "scenes" : [
        {
            "name" : "Scene",
            "nodes" : [
                2
            ]
        }
    ],
    "nodes" : [
        {
            "mesh" : 0,
            "name" : "Object_628"
        },
        {
            "mesh" : 1,
            "name" : "Object_629"
        },
        {
            "children" : [
                0,
                1
            ],
            "name" : "Tree 1.001_292",
            "scale" : [
                0.17135773599147797,
                0.17135773599147797,
                0.17135773599147797
            ],
            "translation" : [
                0,
                0.7423582077026367,
                0
            ]
        }
    ],
    "materials" : [
        {
            "doubleSided" : true,
            "name" : "brown",
            "pbrMetallicRoughness" : {
                "baseColorFactor" : [
                    0.30054399371147156,
                    0.13013699650764465,
                    0.056128498166799545,
                    1
                ],
                "metallicFactor" : 0
            }
        },
        {
            "doubleSided" : true,
            "name" : "light_green",
            "pbrMetallicRoughness" : {
                "baseColorFactor" : [
                    0.1959889978170395,
                    0.36723798513412476,
                    0.007148019969463348,
                    1
                ],
                "metallicFactor" : 0
            }
        }
    ],
    "meshes" : [
        {
            "name" : "Object_336",
            "primitives" : [
                {
                    "attributes" : {
                        "POSITION" : 0,
                        "NORMAL" : 1,
                        "TEXCOORD_0" : 2
                    },
                    "indices" : 3,
                    "material" : 0
                }
            ]
        },
        {
            "name" : "Object_337",
            "primitives" : [
                {
                    "attributes" : {
                        "POSITION" : 4,
                        "NORMAL" : 5,
                        "TEXCOORD_0" : 6
                    },
                    "indices" : 7,
                    "material" : 1
                }
            ]
        }
    ],
    "accessors" : [
        {
            "bufferView" : 0,
            "componentType" : 5126,
            "count" : 2948,
            "max" : [
                2.5404815673828125,
                1.9321715831756592,
                2.3939895629882812
            ],
            "min" : [
                -2.72784423828125,
                -4.424811363220215,
                -1.84197998046875
            ],
            "type" : "VEC3"
        },
        {
            "bufferView" : 1,
            "componentType" : 5126,
            "count" : 2948,
            "type" : "VEC3"
        },
        {
            "bufferView" : 2,
            "componentType" : 5126,
            "count" : 2948,
            "type" : "VEC2"
        },
        {
            "bufferView" : 3,
            "componentType" : 5123,
            "count" : 3900,
            "type" : "SCALAR"
        },
        {
            "bufferView" : 4,
            "componentType" : 5126,
            "count" : 660,
            "max" : [
                4.301422119140625,
                4.257878303527832,
                4.516788482666016
            ],
            "min" : [
                -3.7928543090820312,
                -2.0324201583862305,
                -3.618785858154297
            ],
            "type" : "VEC3"
        },
        {
            "bufferView" : 5,
            "componentType" : 5126,
            "count" : 660,
            "type" : "VEC3"
        },
        {
            "bufferView" : 6,
            "componentType" : 5126,
            "count" : 660,
            "type" : "VEC2"
        },
        {
            "bufferView" : 7,
            "componentType" : 5123,
            "count" : 660,
            "type" : "SCALAR"
        }
    ],
    "bufferViews" : [
        {
            "buffer" : 0,
            "byteLength" : 35376,
            "byteOffset" : 0,
            "target" : 34962
        },
        {
            "buffer" : 0,
            "byteLength" : 35376,
            "byteOffset" : 35376,
            "target" : 34962
        },
        {
            "buffer" : 0,
            "byteLength" : 23584,
            "byteOffset" : 70752,
            "target" : 34962
        },
        {
            "buffer" : 0,
            "byteLength" : 7800,
            "byteOffset" : 94336,
            "target" : 34963
        },
        {
            "buffer" : 0,
            "byteLength" : 7920,
            "byteOffset" : 102136,
            "target" : 34962
        },
        {
            "buffer" : 0,
            "byteLength" : 7920,
            "byteOffset" : 110056,
            "target" : 34962
        },
        {
            "buffer" : 0,
            "byteLength" : 5280,
            "byteOffset" : 117976,
            "target" : 34962
        },
        {
            "buffer" : 0,
            "byteLength" : 1320,
            "byteOffset" : 123256,
            "target" : 34963
        }
    ],
    "buffers" : [
        {
            "byteLength" : 124576,
            "uri" : "data:application/octet-stream;base64,"
        }
    ]
}
