{
    "asset" : {
        "generator" : "Khronos glTF Blender I/O v3.3.32",
        "version" : "2.0"
    },
    "scene" : 0,
    "scenes" : [
        {
            "name" : "Scene",
            "nodes" : [
                2
            ]
        }
    ],
    "nodes" : [
        {
            "mesh" : 0,
            "name" : "Object_133"
        },
        {
            "mesh" : 1,
            "name" : "Object_134"
        },
        {
            "children" : [
                0,
                1
            ],
            "name" : "Tree 38_64",
            "scale" : [
                0.17135773599147797,
                0.17135773599147797,
                0.17135773599147797
            ],
            "translation" : [
                0,
                0.7855149507522583,
                0
            ]
        }
    ],
    "materials" : [
        {
            "doubleSided" : true,
            "name" : "brown.004",
            "pbrMetallicRoughness" : {
                "baseColorFactor" : [
                    0.30054399371147156,
                    0.13013699650764465,
                    0.056128498166799545,
                    1
                ],
                "metallicFactor" : 0
            }
        },
        {
            "doubleSided" : true,
            "name" : "green.001",
            "pbrMetallicRoughness" : {
                "baseColorFactor" : [
                    0.0022202099207788706,
                    0.09462539851665497,
                    0.009629979729652405,
                    1
                ],
                "metallicFactor" : 0
            }
        }
    ],
    "meshes" : [
        {
            "name" : "Object_67",
            "primitives" : [
                {
                    "attributes" : {
                        "POSITION" : 0,
                        "NORMAL" : 1,
                        "TEXCOORD_0" : 2
                    },
                    "indices" : 3,
                    "material" : 0
                }
            ]
        },
        {
            "name" : "Object_68",
            "primitives" : [
                {
                    "attributes" : {
                        "POSITION" : 4,
                        "NORMAL" : 5,
                        "TEXCOORD_0" : 6
                    },
                    "indices" : 7,
                    "material" : 1
                }
            ]
        }
    ],
    "accessors" : [
        {
            "bufferView" : 0,
            "componentType" : 5126,
            "count" : 262,
            "max" : [
                1.6266896724700928,
                2.399155378341675,
                1.35791015625
            ],
            "min" : [
                -2.562103271484375,
                -4.6449737548828125,
                -0.5384262800216675
            ],
            "type" : "VEC3"
        },
        {
            "bufferView" : 1,
            "componentType" : 5126,
            "count" : 262,
            "type" : "VEC3"
        },
        {
            "bufferView" : 2,
            "componentType" : 5126,
            "count" : 262,
            "type" : "VEC2"
        },
        {
            "bufferView" : 3,
            "componentType" : 5123,
            "count" : 342,
            "type" : "SCALAR"
        },
        {
            "bufferView" : 4,
            "componentType" : 5126,
            "count" : 654,
            "max" : [
                4.81732177734375,
                5.2011189460754395,
                2.0791854858398438
            ],
            "min" : [
                -3.0737838745117188,
                -1.0468320846557617,
                -3.518321990966797
            ],
            "type" : "VEC3"
        },
        {
            "bufferView" : 5,
            "componentType" : 5126,
            "count" : 654,
            "type" : "VEC3"
        },
        {
            "bufferView" : 6,
            "componentType" : 5126,
            "count" : 654,
            "type" : "VEC2"
        },
        {
            "bufferView" : 7,
            "componentType" : 5123,
            "count" : 654,
            "type" : "SCALAR"
        }
    ],
    "bufferViews" : [
        {
            "buffer" : 0,
            "byteLength" : 3144,
            "byteOffset" : 0,
            "target" : 34962
        },
        {
            "buffer" : 0,
            "byteLength" : 3144,
            "byteOffset" : 3144,
            "target" : 34962
        },
        {
            "buffer" : 0,
            "byteLength" : 2096,
            "byteOffset" : 6288,
            "target" : 34962
        },
        {
            "buffer" : 0,
            "byteLength" : 684,
            "byteOffset" : 8384,
            "target" : 34963
        },
        {
            "buffer" : 0,
            "byteLength" : 7848,
            "byteOffset" : 9068,
            "target" : 34962
        },
        {
            "buffer" : 0,
            "byteLength" : 7848,
            "byteOffset" : 16916,
            "target" : 34962
        },
        {
            "buffer" : 0,
            "byteLength" : 5232,
            "byteOffset" : 24764,
            "target" : 34962
        },
        {
            "buffer" : 0,
            "byteLength" : 1308,
            "byteOffset" : 29996,
            "target" : 34963
        }
    ],
    "buffers" : [
        {
            "byteLength" : 31304,
            "uri" : "data:application/octet-stream;base64,"
        }
    ]
}
