{
    "asset" : {
        "generator" : "Khronos glTF Blender I/O v3.3.32",
        "version" : "2.0"
    },
    "scene" : 0,
    "scenes" : [
        {
            "name" : "Scene",
            "nodes" : [
                2,
                3,
                4
            ]
        }
    ],
    "nodes" : [
        {
            "name" : "GLTF_SceneRootNode",
            "rotation" : [
                0.7071068286895752,
                0,
                0,
                0.7071067094802856
            ]
        },
        {
            "children" : [
                0
            ],
            "name" : "root"
        },
        {
            "children" : [
                1
            ],
            "name" : "Sketchfab_model",
            "rotation" : [
                -0.7071068286895752,
                0,
                0,
                0.7071067094802856
            ]
        },
        {
            "mesh" : 0,
            "name" : "Object_198",
            "translation" : [
                -0.13195466995239258,
                4.458747863769531,
                -0.5382792353630066
            ]
        },
        {
            "mesh" : 1,
            "name" : "Object_199",
            "translation" : [
                -0.13195466995239258,
                4.458747863769531,
                -0.5382792353630066
            ]
        }
    ],
    "materials" : [
        {
            "doubleSided" : true,
            "name" : "brown.004",
            "pbrMetallicRoughness" : {
                "baseColorFactor" : [
                    0.30054399371147156,
                    0.13013699650764465,
                    0.056128498166799545,
                    1
                ],
                "metallicFactor" : 0
            }
        },
        {
            "doubleSided" : true,
            "name" : "green.001",
            "pbrMetallicRoughness" : {
                "baseColorFactor" : [
                    0.0022202099207788706,
                    0.09462539851665497,
                    0.009629979729652405,
                    1
                ],
                "metallicFactor" : 0
            }
        }
    ],
    "meshes" : [
        {
            "name" : "Object_110",
            "primitives" : [
                {
                    "attributes" : {
                        "POSITION" : 0,
                        "NORMAL" : 1,
                        "TEXCOORD_0" : 2
                    },
                    "indices" : 3,
                    "material" : 0
                }
            ]
        },
        {
            "name" : "Object_111",
            "primitives" : [
                {
                    "attributes" : {
                        "POSITION" : 4,
                        "NORMAL" : 5,
                        "TEXCOORD_0" : 6
                    },
                    "indices" : 7,
                    "material" : 1
                }
            ]
        }
    ],
    "accessors" : [
        {
            "bufferView" : 0,
            "componentType" : 5126,
            "count" : 2942,
            "max" : [
                2.5404815673828125,
                1.9321722984313965,
                2.3940277099609375
            ],
            "min" : [
                -2.7278366088867188,
                -4.424812316894531,
                -1.8419418334960938
            ],
            "type" : "VEC3"
        },
        {
            "bufferView" : 1,
            "componentType" : 5126,
            "count" : 2942,
            "type" : "VEC3"
        },
        {
            "bufferView" : 2,
            "componentType" : 5126,
            "count" : 2942,
            "type" : "VEC2"
        },
        {
            "bufferView" : 3,
            "componentType" : 5123,
            "count" : 3900,
            "type" : "SCALAR"
        },
        {
            "bufferView" : 4,
            "componentType" : 5126,
            "count" : 660,
            "max" : [
                4.301429748535156,
                4.25787353515625,
                4.516815185546875
            ],
            "min" : [
                -3.7928619384765625,
                -2.0324244499206543,
                -3.6187591552734375
            ],
            "type" : "VEC3"
        },
        {
            "bufferView" : 5,
            "componentType" : 5126,
            "count" : 660,
            "type" : "VEC3"
        },
        {
            "bufferView" : 6,
            "componentType" : 5126,
            "count" : 660,
            "type" : "VEC2"
        },
        {
            "bufferView" : 7,
            "componentType" : 5123,
            "count" : 660,
            "type" : "SCALAR"
        }
    ],
    "bufferViews" : [
        {
            "buffer" : 0,
            "byteLength" : 35304,
            "byteOffset" : 0,
            "target" : 34962
        },
        {
            "buffer" : 0,
            "byteLength" : 35304,
            "byteOffset" : 35304,
            "target" : 34962
        },
        {
            "buffer" : 0,
            "byteLength" : 23536,
            "byteOffset" : 70608,
            "target" : 34962
        },
        {
            "buffer" : 0,
            "byteLength" : 7800,
            "byteOffset" : 94144,
            "target" : 34963
        },
        {
            "buffer" : 0,
            "byteLength" : 7920,
            "byteOffset" : 101944,
            "target" : 34962
        },
        {
            "buffer" : 0,
            "byteLength" : 7920,
            "byteOffset" : 109864,
            "target" : 34962
        },
        {
            "buffer" : 0,
            "byteLength" : 5280,
            "byteOffset" : 117784,
            "target" : 34962
        },
        {
            "buffer" : 0,
            "byteLength" : 1320,
            "byteOffset" : 123064,
            "target" : 34963
        }
    ],
    "buffers" : [
        {
            "byteLength" : 124384,
            "uri" : "data:application/octet-stream;base64,"
        }
    ]
}
