{
  "accessors": [
    {
      "bufferView": 2,
      "componentType": 5126,
      "count": 385,
      "max": [
        10.419798851013184,
        76.48563385009766,
        5.491739749908447
      ],
      "min": [
        -8.912099838256836,
        -18.211898803710938,
        0.7139873504638672
      ],
      "type": "VEC3"
    },
    {
      "bufferView": 2,
      "byteOffset": 4620,
      "componentType": 5126,
      "count": 385,
      "max": [
        0.9988857507705688,
        1.0,
        0.9995810985565186
      ],
      "min": [
        -0.9806795716285706,
        -0.8788912296295166,
        -0.992804229259491
      ],
      "type": "VEC3"
    },
    {
      "bufferView": 1,
      "componentType": 5126,
      "count": 385,
      "max": [
        0.9724888205528259,
        0.9845009446144104
      ],
      "min": [
        0.024191725999116898,
        0.07375423610210419
      ],
      "type": "VEC2"
    },
    {
      "bufferView": 0,
      "componentType": 5125,
      "count": 588,
      "type": "SCALAR"
    }
  ],
  "asset": {
    "extras": {
      "author": "Anna Vidal (Milaein) (https://sketchfab.com/milaein)",
      "license": "CC-BY-4.0 (http://creativecommons.org/licenses/by/4.0/)",
      "source": "https://sketchfab.com/3d-models/low-poly-pirate-shovel-fbcef55c06c24cc2920b024af9f69b40",
      "title": "Low poly pirate shovel"
    },
    "generator": "Sketchfab-12.65.0",
    "version": "2.0"
  },
  "bufferViews": [
    {
      "buffer": 0,
      "byteLength": 2352,
      "name": "floatBufferViews",
      "target": 34963
    },
    {
      "buffer": 0,
      "byteLength": 3080,
      "byteOffset": 2352,
      "byteStride": 8,
      "name": "floatBufferViews",
      "target": 34962
    },
    {
      "buffer": 0,
      "byteLength": 9240,
      "byteOffset": 5432,
      "byteStride": 12,
      "name": "floatBufferViews",
      "target": 34962
    }
  ],
  "buffers": [
    {
      "byteLength": 14672,
      "uri": "scene.bin"
    }
  ],
  "images": [
    {
      "uri": "textures/Material_25_baseColor.png"
    }
  ],
  "materials": [
    {
      "doubleSided": true,
      "name": "Material_25",
      "pbrMetallicRoughness": {
        "baseColorTexture": {
          "index": 0
        },
        "metallicFactor": 0.0,
        "roughnessFactor": 0.8929713596
      }
    }
  ],
  "meshes": [
    {
      "name": "Box001_Material #25_0",
      "primitives": [
        {
          "attributes": {
            "NORMAL": 1,
            "POSITION": 0,
            "TEXCOORD_0": 2
          },
          "indices": 3,
          "material": 0,
          "mode": 4
        }
      ]
    }
  ],
  "nodes": [
    {
      "children": [
        1
      ],
      "matrix": [
        0.03518693521618843,
        0.0,
        0.0,
        0.0,
        0.0,
        7.813069128601231e-18,
        -0.03518693521618843,
        0.0,
        0.0,
        0.03518693521618843,
        7.813069128601231e-18,
        0.0,
        0.0,
        0.0,
        0.0,
        1.0
      ],
      "name": "Sketchfab_model"
    },
    {
      "children": [
        2
      ],
      "matrix": [
        1.0,
        0.0,
        0.0,
        0.0,
        0.0,
        0.0,
        1.0,
        0.0,
        0.0,
        -1.0,
        0.0,
        0.0,
        0.0,
        0.0,
        0.0,
        1.0
      ],
      "name": "e6b94598c71b48e8b0060036e5cc29f4.fbx"
    },
    {
      "children": [
        3
      ],
      "name": "RootNode"
    },
    {
      "children": [
        4
      ],
      "matrix": [
        1.6905425786972046,
        0.0,
        0.0,
        0.0,
        0.0,
        3.7537585899576444e-16,
        -1.6905425786972046,
        0.0,
        0.0,
        1.6905425786972046,
        3.7537585899576444e-16,
        0.0,
        -0.26978635787963867,
        -6.799243927001953,
        38.878543853759766,
        1.0
      ],
      "name": "Box001"
    },
    {
      "mesh": 0,
      "name": "Box001_Material #25_0"
    }
  ],
  "samplers": [
    {
      "magFilter": 9729,
      "minFilter": 9987,
      "wrapS": 10497,
      "wrapT": 10497
    }
  ],
  "scene": 0,
  "scenes": [
    {
      "name": "Sketchfab_Scene",
      "nodes": [
        0
      ]
    }
  ],
  "textures": [
    {
      "sampler": 0,
      "source": 0
    }
  ]
}
