{
    "asset" : {
        "generator" : "Khronos glTF Blender I/O v3.3.32",
        "version" : "2.0"
    },
    "scene" : 0,
    "scenes" : [
        {
            "name" : "Scene",
            "nodes" : [
                4
            ]
        }
    ],
    "nodes" : [
        {
            "mesh" : 0,
            "name" : "PP_Forest_Mountain_Moss_02.001_PP_Standard_Material_0"
        },
        {
            "children" : [
                0
            ],
            "name" : "PP_Forest_Mountain_Moss_02.001",
            "rotation" : [
                -0.7071068286895752,
                0,
                0,
                0.7071067094802856
            ],
            "scale" : [
                100,
                99.99999237060547,
                99.99999237060547
            ],
            "translation" : [
                0,
                -0.00024414061044808477,
                0
            ]
        },
        {
            "children" : [
                1
            ],
            "name" : "RootNode"
        },
        {
            "children" : [
                2
            ],
            "name" : "072a0f2110724885b1dbbfcdab8286dd.fbx",
            "rotation" : [
                0.7071068286895752,
                0,
                0,
                0.7071067094802856
            ],
            "scale" : [
                0.009999999776482582,
                0.010000000707805157,
                0.010000000707805157
            ]
        },
        {
            "children" : [
                3
            ],
            "name" : "Sketchfab_model",
            "rotation" : [
                -0.7071068286895752,
                0,
                0,
                0.7071067094802856
            ]
        }
    ],
    "materials" : [
        {
            "doubleSided" : true,
            "name" : "PP_Standard_Material",
            "occlusionTexture" : {
                "index" : 0,
                "strength" : 0.70054030418396
            },
            "pbrMetallicRoughness" : {
                "baseColorTexture" : {
                    "index" : 1
                },
                "metallicFactor" : 0,
                "metallicRoughnessTexture" : {
                    "index" : 0
                }
            }
        }
    ],
    "meshes" : [
        {
            "name" : "PP_Forest_Mountain_Moss_02.001_PP_Standard_Material_0",
            "primitives" : [
                {
                    "attributes" : {
                        "POSITION" : 0,
                        "NORMAL" : 1,
                        "TEXCOORD_0" : 2
                    },
                    "indices" : 3,
                    "material" : 0
                }
            ]
        }
    ],
    "textures" : [
        {
            "sampler" : 0,
            "source" : 0
        },
        {
            "sampler" : 0,
            "source" : 1
        }
    ],
    "images" : [
        {
            "bufferView" : 4,
            "mimeType" : "image/png",
            "name" : "PP_Standard_Material_metallicRoughness"
        },
        {
            "bufferView" : 5,
            "mimeType" : "image/png",
            "name" : "PP_Standard_Material_baseColor"
        }
    ],
    "accessors" : [
        {
            "bufferView" : 0,
            "componentType" : 5126,
            "count" : 5578,
            "max" : [
                21.033203125,
                19.52971839904785,
                21.19725799560547
            ],
            "min" : [
                -19.382381439208984,
                -20.885723114013672,
                -0.09832000732421875
            ],
            "type" : "VEC3"
        },
        {
            "bufferView" : 1,
            "componentType" : 5126,
            "count" : 5578,
            "type" : "VEC3"
        },
        {
            "bufferView" : 2,
            "componentType" : 5126,
            "count" : 5578,
            "type" : "VEC2"
        },
        {
            "bufferView" : 3,
            "componentType" : 5123,
            "count" : 5838,
            "type" : "SCALAR"
        }
    ],
    "bufferViews" : [
        {
            "buffer" : 0,
            "byteLength" : 66936,
            "byteOffset" : 0,
            "target" : 34962
        },
        {
            "buffer" : 0,
            "byteLength" : 66936,
            "byteOffset" : 66936,
            "target" : 34962
        },
        {
            "buffer" : 0,
            "byteLength" : 44624,
            "byteOffset" : 133872,
            "target" : 34962
        },
        {
            "buffer" : 0,
            "byteLength" : 11676,
            "byteOffset" : 178496,
            "target" : 34963
        },
        {
            "buffer" : 0,
            "byteLength" : 2508,
            "byteOffset" : 190172
        },
        {
            "buffer" : 0,
            "byteLength" : 4468,
            "byteOffset" : 192680
        }
    ],
    "samplers" : [
        {
            "magFilter" : 9729,
            "minFilter" : 9987
        }
    ],
    "buffers" : [
        {
            "byteLength" : 197148,
            "uri" : "data:application/octet-stream;base64,"
        }
    ]
}
