{
    "asset" : {
        "generator" : "Khronos glTF Blender I/O v3.3.32",
        "version" : "2.0"
    },
    "scene" : 0,
    "scenes" : [
        {
            "name" : "Scene",
            "nodes" : [
                8
            ]
        }
    ],
    "nodes" : [
        {
            "mesh" : 0,
            "name" : "Metaball_7_Cloud_0"
        },
        {
            "children" : [
                0
            ],
            "name" : "Metaball_7",
            "rotation" : [
                0.5271619558334351,
                0.452000230550766,
                -0.4691384434700012,
                0.5456237196922302
            ],
            "translation" : [
                0,
                0.000244140625,
                0
            ]
        },
        {
            "children" : [
                1
            ],
            "name" : "Cluds"
        },
        {
            "name" : "Random"
        },
        {
            "name" : "Subdivision_Surface"
        },
        {
            "children" : [
                2,
                3,
                4
            ],
            "name" : "RootNode"
        },
        {
            "children" : [
                5
            ],
            "name" : "Object_2"
        },
        {
            "children" : [
                6
            ],
            "name" : "52bf8a54c556470f89f4be0c8d967b01.fbx",
            "rotation" : [
                0.7071068286895752,
                0,
                0,
                0.7071067094802856
            ]
        },
        {
            "children" : [
                7
            ],
            "name" : "Sketchfab_model",
            "rotation" : [
                -0.7071068286895752,
                0,
                0,
                0.7071067094802856
            ],
            "scale" : [
                0.004472852218896151,
                0.004472852684557438,
                0.004472852684557438
            ]
        }
    ],
    "animations" : [
        {
            "channels" : [
                {
                    "sampler" : 0,
                    "target" : {
                        "node" : 2,
                        "path" : "rotation"
                    }
                }
            ],
            "name" : "Main",
            "samplers" : [
                {
                    "input" : 4,
                    "interpolation" : "LINEAR",
                    "output" : 5
                }
            ]
        }
    ],
    "materials" : [
        {
            "alphaMode" : "BLEND",
            "doubleSided" : true,
            "name" : "Cloud",
            "pbrMetallicRoughness" : {
                "baseColorFactor" : [
                    0.800000011920929,
                    0.800000011920929,
                    0.800000011920929,
                    0.2770661413669586
                ],
                "metallicFactor" : 0,
                "roughnessFactor" : 0.9524317383766174
            }
        }
    ],
    "meshes" : [
        {
            "name" : "Metaball_7_Cloud_0",
            "primitives" : [
                {
                    "attributes" : {
                        "POSITION" : 0,
                        "NORMAL" : 1,
                        "TEXCOORD_0" : 2
                    },
                    "indices" : 3,
                    "material" : 0
                }
            ]
        }
    ],
    "accessors" : [
        {
            "bufferView" : 0,
            "componentType" : 5126,
            "count" : 2040,
            "max" : [
                298.8537902832031,
                621.9221801757812,
                217.47412109375
            ],
            "min" : [
                -283.0316467285156,
                -584.564208984375,
                -369.2986145019531
            ],
            "type" : "VEC3"
        },
        {
            "bufferView" : 1,
            "componentType" : 5126,
            "count" : 2040,
            "type" : "VEC3"
        },
        {
            "bufferView" : 2,
            "componentType" : 5126,
            "count" : 2040,
            "type" : "VEC2"
        },
        {
            "bufferView" : 3,
            "componentType" : 5123,
            "count" : 11592,
            "type" : "SCALAR"
        },
        {
            "bufferView" : 4,
            "componentType" : 5126,
            "count" : 289,
            "max" : [
                12
            ],
            "min" : [
                0
            ],
            "type" : "SCALAR"
        },
        {
            "bufferView" : 5,
            "componentType" : 5126,
            "count" : 289,
            "type" : "VEC4"
        }
    ],
    "bufferViews" : [
        {
            "buffer" : 0,
            "byteLength" : 24480,
            "byteOffset" : 0,
            "target" : 34962
        },
        {
            "buffer" : 0,
            "byteLength" : 24480,
            "byteOffset" : 24480,
            "target" : 34962
        },
        {
            "buffer" : 0,
            "byteLength" : 16320,
            "byteOffset" : 48960,
            "target" : 34962
        },
        {
            "buffer" : 0,
            "byteLength" : 23184,
            "byteOffset" : 65280,
            "target" : 34963
        },
        {
            "buffer" : 0,
            "byteLength" : 1156,
            "byteOffset" : 88464
        },
        {
            "buffer" : 0,
            "byteLength" : 4624,
            "byteOffset" : 89620
        }
    ],
    "buffers" : [
        {
            "byteLength" : 94244,
            "uri" : "data:application/octet-stream;base64,"
        }
    ]
}
