{
  "accessors": [
    {
      "bufferView": 2,
      "componentType": 5126,
      "count": 3580,
      "max": [
        42.48040008544922,
        9.111100196838379,
        26.770700454711914
      ],
      "min": [
        -32.28219985961914,
        3.194499969482422,
        -35.30099868774414
      ],
      "type": "VEC3"
    },
    {
      "bufferView": 2,
      "byteOffset": 42960,
      "componentType": 5126,
      "count": 3580,
      "max": [
        0.999110758304596,
        0.9903118014335632,
        0.9990344047546387
      ],
      "min": [
        -0.999846875667572,
        -0.9983271360397339,
        -1.0
      ],
      "type": "VEC3"
    },
    {
      "bufferView": 1,
      "componentType": 5126,
      "count": 3580,
      "max": [
        1.0,
        -0.15790000557899475
      ],
      "min": [
        0.0,
        -1.0
      ],
      "type": "VEC2"
    },
    {
      "bufferView": 0,
      "componentType": 5125,
      "count": 17100,
      "type": "SCALAR"
    },
    {
      "bufferView": 2,
      "byteOffset": 85920,
      "componentType": 5126,
      "count": 780,
      "max": [
        32.93130111694336,
        8.269000053405762,
        26.770700454711914
      ],
      "min": [
        -32.28219985961914,
        3.194499969482422,
        -25.000499725341797
      ],
      "type": "VEC3"
    },
    {
      "bufferView": 2,
      "byteOffset": 95280,
      "componentType": 5126,
      "count": 780,
      "max": [
        0.9982317686080933,
        0.46530604362487793,
        1.0
      ],
      "min": [
        -0.996411144733429,
        -0.5986132621765137,
        -0.9853406548500061
      ],
      "type": "VEC3"
    },
    {
      "bufferView": 1,
      "byteOffset": 28640,
      "componentType": 5126,
      "count": 780,
      "max": [
        1.0,
        -0.05260000005364418
      ],
      "min": [
        0.0,
        -0.15790000557899475
      ],
      "type": "VEC2"
    },
    {
      "bufferView": 0,
      "byteOffset": 68400,
      "componentType": 5125,
      "count": 1140,
      "type": "SCALAR"
    }
  ],
  "asset": {
    "extras": {
      "author": "IronEqual (https://sketchfab.com/ie-niels)",
      "license": "CC-BY-4.0 (http://creativecommons.org/licenses/by/4.0/)",
      "source": "https://sketchfab.com/3d-models/pumpkin-seed-from-poly-by-google-ac4e710fdceb42b9bed56733f6c47e95",
      "title": "Pumpkin seed from Poly by Google"
    },
    "generator": "Sketchfab-12.65.0",
    "version": "2.0"
  },
  "bufferViews": [
    {
      "buffer": 0,
      "byteLength": 72960,
      "name": "floatBufferViews",
      "target": 34963
    },
    {
      "buffer": 0,
      "byteLength": 34880,
      "byteOffset": 72960,
      "byteStride": 8,
      "name": "floatBufferViews",
      "target": 34962
    },
    {
      "buffer": 0,
      "byteLength": 104640,
      "byteOffset": 107840,
      "byteStride": 12,
      "name": "floatBufferViews",
      "target": 34962
    }
  ],
  "buffers": [
    {
      "byteLength": 212480,
      "uri": "scene.bin"
    }
  ],
  "materials": [
    {
      "doubleSided": true,
      "name": "09___Default",
      "pbrMetallicRoughness": {
        "baseColorFactor": [
          0.6627,
          0.4118,
          0.1922,
          1.0
        ],
        "metallicFactor": 0.0,
        "roughnessFactor": 0.969948
      }
    },
    {
      "doubleSided": true,
      "name": "10___Default",
      "pbrMetallicRoughness": {
        "baseColorFactor": [
          0.2941,
          0.1412,
          0.0392,
          1.0
        ],
        "metallicFactor": 0.0,
        "roughnessFactor": 0.969948
      }
    }
  ],
  "meshes": [
    {
      "name": "Object_0",
      "primitives": [
        {
          "attributes": {
            "NORMAL": 1,
            "POSITION": 0,
            "TEXCOORD_0": 2
          },
          "indices": 3,
          "material": 0,
          "mode": 4
        }
      ]
    },
    {
      "name": "Object_1",
      "primitives": [
        {
          "attributes": {
            "NORMAL": 5,
            "POSITION": 4,
            "TEXCOORD_0": 6
          },
          "indices": 7,
          "material": 1,
          "mode": 4
        }
      ]
    }
  ],
  "nodes": [
    {
      "children": [
        1
      ],
      "matrix": [
        1.0,
        0.0,
        0.0,
        0.0,
        0.0,
        2.220446049250313e-16,
        -1.0,
        0.0,
        0.0,
        1.0,
        2.220446049250313e-16,
        0.0,
        0.0,
        0.0,
        0.0,
        1.0
      ],
      "name": "Sketchfab_model"
    },
    {
      "children": [
        2
      ],
      "name": "root"
    },
    {
      "children": [
        3
      ],
      "matrix": [
        1.0,
        0.0,
        0.0,
        0.0,
        0.0,
        2.220446049250313e-16,
        1.0,
        0.0,
        0.0,
        -1.0,
        2.220446049250313e-16,
        0.0,
        0.0,
        0.0,
        0.0,
        1.0
      ],
      "name": "GLTF_SceneRootNode"
    },
    {
      "children": [
        4,
        5
      ],
      "name": "node-0_0"
    },
    {
      "mesh": 0,
      "name": "Object_4"
    },
    {
      "mesh": 1,
      "name": "Object_5"
    }
  ],
  "scene": 0,
  "scenes": [
    {
      "name": "Sketchfab_Scene",
      "nodes": [
        0
      ]
    }
  ]
}
